<svg baseProfile="tiny" xmlns="http://www.w3.org/2000/svg" width="140" height="90" viewBox="0 0 140 90"><g fill="#22A8C3"><path d="M18.7 0h3.1v90h-3.1zM25.5 0h3.1v90h-3.1zM0 8.2v73.6C0 86.3 3.7 90 8.2 90H15V0H8.2C3.7 0 0 3.7 0 8.2zM83.5 52.6V36.4c0-5.4 4.3-9.7 9.7-9.7h38V8.2c0-4.5-3.7-8.2-8.2-8.2H32.4v90H123c4.5 0 8.2-3.7 8.2-8.2V62.3h-38c-5.4 0-9.7-4.4-9.7-9.7z"/><path d="M131.6 30.5h-36c-4.7 0-8.4 3.8-8.4 8.5v11.4c0 4.7 3.8 8.5 8.4 8.5h35.9c4.7 0 8.4-3.8 8.4-8.5V39c.1-4.7-3.7-8.5-8.3-8.5zm-30.9 19.8c-3.3 0-6-2.7-6-6s2.7-6 6-6 6 2.7 6 6c-.1 3.3-2.8 6-6 6z"/></g></svg>